<?xml version="1.0" encoding="UTF-8" standalone="no"?>
<!-- Created with Inkscape (http://www.inkscape.org/) -->

<svg
   width="140mm"
   height="90mm"
   viewBox="0 0 140 90"
   version="1.1"
   id="svg5"
   inkscape:version="1.3 (0e150ed6c4, 2023-07-21)"
   sodipodi:docname="logo-css.svg"
   xmlns:inkscape="http://www.inkscape.org/namespaces/inkscape"
   xmlns:sodipodi="http://sodipodi.sourceforge.net/DTD/sodipodi-0.dtd"
   xmlns="http://www.w3.org/2000/svg"
   xmlns:svg="http://www.w3.org/2000/svg">
  <sodipodi:namedview
     id="namedview7"
     pagecolor="#ffffff"
     bordercolor="#666666"
     borderopacity="1.0"
     inkscape:pageshadow="2"
     inkscape:pageopacity="0.0"
     inkscape:pagecheckerboard="0"
     inkscape:document-units="mm"
     showgrid="false"
     inkscape:zoom="0.78866093"
     inkscape:cx="349.96028"
     inkscape:cy="351.86224"
     inkscape:window-width="2560"
     inkscape:window-height="1403"
     inkscape:window-x="0"
     inkscape:window-y="0"
     inkscape:window-maximized="1"
     inkscape:current-layer="layer1"
     fit-margin-top="0"
     fit-margin-left="0"
     fit-margin-right="0"
     fit-margin-bottom="0"
     inkscape:showpageshadow="2"
     inkscape:deskcolor="#d1d1d1" />
  <defs
     id="defs2" />
  <g
     inkscape:label="Calque 1"
     inkscape:groupmode="layer"
     id="layer1"
     transform="translate(-38.846362,-67.796908)"
     style="display:inline">
    <g
       id="g1"
       transform="translate(1.3553757)">
      <rect
         id="rect31"
         width="79.375"
         height="79.375"
         x="46.825531"
         y="73.109406"
         style="fill:none;stroke:#000000;stroke-width:2.11667;stroke-miterlimit:4;stroke-dasharray:none"
         ry="0" />
      <g
         aria-label="CSS IS AWESOME"
         id="text2920"
         style="font-size:22.5204px;line-height:1;stroke-width:0.563011"
         transform="translate(3.8430566)">
        <path
           d="m 63.467039,86.61096 c -0.427888,-3.715866 -3.423101,-5.787742 -6.936283,-5.787742 -4.954488,0 -7.90466,3.715865 -7.90466,8.49019 0,4.639202 2.950172,8.355068 7.90466,8.355068 3.96359,0 6.711079,-2.544805 7.071405,-6.575956 h -3.4231 c -0.270245,2.139437 -1.486347,3.603263 -3.648305,3.603263 -3.175376,0 -4.368957,-2.702448 -4.368957,-5.382375 0,-2.81505 1.193581,-5.517498 4.368957,-5.517498 1.734071,0 3.265458,1.216102 3.513182,2.81505 z"
           style="font-weight:bold;font-family:'Helvetica Neue LT Pro';-inkscape-font-specification:'Helvetica Neue LT Pro Bold'"
           id="path13461" />
        <path
           d="m 64.998408,91.948295 c -0.06756,3.96359 3.287978,5.720181 6.846201,5.720181 4.391478,0 6.688559,-2.206999 6.688559,-5.157171 0,-3.625785 -3.580744,-4.413999 -4.774325,-4.684243 -4.031151,-1.013418 -4.796845,-1.193581 -4.796845,-2.432203 0,-1.351224 1.306183,-1.824153 2.432203,-1.824153 1.71155,0 3.062774,0.517969 3.175376,2.432203 h 3.423101 c 0,-3.715866 -3.085295,-5.179691 -6.440834,-5.179691 -2.905132,0 -6.012947,1.553907 -6.012947,4.864406 0,2.972692 2.409683,3.98611 4.796845,4.571641 2.342122,0.653091 4.774325,0.900816 4.774325,2.657407 0,1.643989 -1.891714,2.004315 -3.130336,2.004315 -1.891713,0 -3.558223,-0.833254 -3.558223,-2.972692 z"
           style="font-weight:bold;font-family:'Helvetica Neue LT Pro';-inkscape-font-specification:'Helvetica Neue LT Pro Bold'"
           id="path13463" />
        <path
           d="m 79.614108,91.948295 c -0.06756,3.96359 3.287978,5.720181 6.846201,5.720181 4.391478,0 6.688558,-2.206999 6.688558,-5.157171 0,-3.625785 -3.580743,-4.413999 -4.774324,-4.684243 -4.031152,-1.013418 -4.796845,-1.193581 -4.796845,-2.432203 0,-1.351224 1.306183,-1.824153 2.432203,-1.824153 1.71155,0 3.062774,0.517969 3.175376,2.432203 h 3.423101 c 0,-3.715866 -3.085295,-5.179691 -6.440834,-5.179691 -2.905132,0 -6.012947,1.553907 -6.012947,4.864406 0,2.972692 2.409683,3.98611 4.796845,4.571641 2.342122,0.653091 4.774325,0.900816 4.774325,2.657407 0,1.643989 -1.891714,2.004315 -3.130336,2.004315 -1.891713,0 -3.558223,-0.833254 -3.558223,-2.972692 z"
           style="font-weight:bold;font-family:'Helvetica Neue LT Pro';-inkscape-font-specification:'Helvetica Neue LT Pro Bold'"
           id="path13465" />
        <path
           d="m 49.324228,120.83669 h 3.535703 v -16.07957 h -3.535703 z"
           style="font-weight:bold;font-family:'Helvetica Neue LT Pro';-inkscape-font-specification:'Helvetica Neue LT Pro Bold'"
           id="path13467" />
        <path
           d="m 54.954287,115.49935 c -0.06756,3.96359 3.287978,5.72019 6.846201,5.72019 4.391478,0 6.688559,-2.207 6.688559,-5.15718 0,-3.62578 -3.580744,-4.41399 -4.774325,-4.68424 -4.031151,-1.01342 -4.796845,-1.19358 -4.796845,-2.4322 0,-1.35123 1.306183,-1.82415 2.432203,-1.82415 1.711551,0 3.062775,0.51796 3.175377,2.4322 h 3.4231 c 0,-3.71587 -3.085294,-5.17969 -6.440834,-5.17969 -2.905131,0 -6.012946,1.5539 -6.012946,4.8644 0,2.9727 2.409682,3.98611 4.796845,4.57164 2.342121,0.6531 4.774324,0.90082 4.774324,2.65741 0,1.64399 -1.891713,2.00432 -3.130335,2.00432 -1.891714,0 -3.558223,-0.83326 -3.558223,-2.9727 z"
           style="font-weight:bold;font-family:'Helvetica Neue LT Pro';-inkscape-font-specification:'Helvetica Neue LT Pro Bold'"
           id="path13469" />
        <path
           d="m 55.472297,132.27177 h 0.04504 l 2.026836,5.90035 H 53.3779 Z m -7.859619,12.11598 h 3.580744 l 1.261142,-3.58075 h 6.012946 l 1.216102,3.58075 h 3.670825 l -6.012946,-16.07957 h -3.625785 z"
           style="font-weight:bold;font-family:'Helvetica Neue LT Pro';-inkscape-font-specification:'Helvetica Neue LT Pro Bold'"
           id="path13471" />
        <path
           d="m 84.388478,128.30818 h -3.468142 l -2.634886,11.08004 h -0.04504 l -2.74749,-11.08004 h -3.310499 l -2.792529,10.94492 h -0.04504 l -2.544805,-10.94492 h -3.535703 l 4.256356,16.07957 h 3.580743 l 2.679928,-10.94492 h 0.04504 l 2.724969,10.94492 h 3.513182 z"
           style="font-weight:bold;font-family:'Helvetica Neue LT Pro';-inkscape-font-specification:'Helvetica Neue LT Pro Bold'"
           id="path13473" />
        <path
           d="m 86.009909,144.38775 h 12.206056 v -2.97269 h -8.670354 v -3.94107 h 7.792059 v -2.74749 h -7.792059 v -3.44562 h 8.490191 v -2.9727 H 86.009909 Z"
           style="font-weight:bold;font-family:'Helvetica Neue LT Pro';-inkscape-font-specification:'Helvetica Neue LT Pro Bold'"
           id="path13475" />
        <path
           d="m 99.589684,139.05041 c -0.06756,3.96359 3.287976,5.72018 6.846206,5.72018 4.39147,0 6.68855,-2.20699 6.68855,-5.15717 0,-3.62578 -3.58074,-4.414 -4.77432,-4.68424 -4.03115,-1.01342 -4.79685,-1.19358 -4.79685,-2.4322 0,-1.35123 1.30619,-1.82416 2.43221,-1.82416 1.71155,0 3.06277,0.51797 3.17537,2.43221 h 3.4231 c 0,-3.71587 -3.08529,-5.17969 -6.44083,-5.17969 -2.90513,0 -6.01295,1.5539 -6.01295,4.8644 0,2.97269 2.40969,3.98611 4.79685,4.57164 2.34212,0.65309 4.77432,0.90082 4.77432,2.65741 0,1.64399 -1.89171,2.00432 -3.13033,2.00432 -1.89172,0 -3.55823,-0.83326 -3.55823,-2.9727 z"
           style="font-weight:bold;font-family:'Helvetica Neue LT Pro';-inkscape-font-specification:'Helvetica Neue LT Pro Bold'"
           id="path13477" />
        <path
           d="m 118.05638,136.41553 c 0,-2.81505 1.19358,-5.5175 4.36895,-5.5175 3.17538,0 4.36896,2.70245 4.36896,5.5175 0,2.67992 -1.19358,5.38237 -4.36896,5.38237 -3.17537,0 -4.36895,-2.70245 -4.36895,-5.38237 z m -3.53571,0 c 0,4.6392 2.95018,8.35506 7.90466,8.35506 4.95449,0 7.90466,-3.71586 7.90466,-8.35506 0,-4.77433 -2.95017,-8.49019 -7.90466,-8.49019 -4.95448,0 -7.90466,3.71586 -7.90466,8.49019 z"
           style="font-weight:bold;font-family:'Helvetica Neue LT Pro';-inkscape-font-specification:'Helvetica Neue LT Pro Bold'"
           id="path13479" />
        <path
           d="m 132.73967,144.38775 h 3.3105 v -11.28272 h 0.045 l 3.94107,11.28272 h 2.72497 l 3.94107,-11.39532 h 0.045 v 11.39532 h 3.3105 v -16.07957 h -4.97701 l -3.55822,11.05752 h -0.045 l -3.76091,-11.05752 h -4.97701 z"
           style="font-weight:bold;font-family:'Helvetica Neue LT Pro';-inkscape-font-specification:'Helvetica Neue LT Pro Bold'"
           id="path13481" />
        <path
           d="m 153.16566,144.38775 h 12.20606 v -2.97269 h -8.67036 v -3.94107 h 7.79206 v -2.74749 h -7.79206 v -3.44562 h 8.49019 v -2.9727 h -12.02589 z"
           style="font-weight:bold;font-family:'Helvetica Neue LT Pro';-inkscape-font-specification:'Helvetica Neue LT Pro Bold'"
           id="path13483" />
      </g>
    </g>
  </g>
  <g
     inkscape:groupmode="layer"
     id="layer2"
     inkscape:label="Calque 2"
     transform="translate(-38.846362,-67.796908)"
     style="display:none">
    <text
       xml:space="preserve"
       style="font-style:normal;font-weight:normal;font-size:22.5204px;line-height:1;font-family:sans-serif;display:inline;fill:#000000;fill-opacity:1;stroke:none;stroke-width:0.563011"
       x="47.770321"
       y="97.285629"
       id="text2920-0"><tspan
         sodipodi:role="line"
         id="tspan2918-6"
         style="font-style:normal;font-variant:normal;font-weight:bold;font-stretch:normal;font-family:'Helvetica Neue LT Pro';-inkscape-font-specification:'Helvetica Neue LT Pro Bold';stroke-width:0.563011"
         x="47.770321"
         y="97.285629">CSS</tspan><tspan
         sodipodi:role="line"
         style="font-style:normal;font-variant:normal;font-weight:bold;font-stretch:normal;font-family:'Helvetica Neue LT Pro';-inkscape-font-specification:'Helvetica Neue LT Pro Bold';stroke-width:0.563011"
         x="47.770321"
         y="121.40217"
         id="tspan2922-3">IS</tspan><tspan
         sodipodi:role="line"
         style="font-style:normal;font-variant:normal;font-weight:bold;font-stretch:normal;font-family:'Helvetica Neue LT Pro';-inkscape-font-specification:'Helvetica Neue LT Pro Bold';stroke-width:0.563011"
         x="47.770321"
         y="145.51871"
         id="tspan2924-2">AWESOME</tspan></text>
  </g>
</svg>
