<?xml version="1.0" encoding="UTF-8" standalone="no"?>
<svg
   version="1.1"
   x="0px"
   y="0px"
   viewBox="0 0 80 80"
   xml:space="preserve"
   id="svg5"
   sodipodi:docname="pointer.svg"
   width="80"
   height="80"
   inkscape:version="1.3 (0e150ed6c4, 2023-07-21)"
   xmlns:inkscape="http://www.inkscape.org/namespaces/inkscape"
   xmlns:sodipodi="http://sodipodi.sourceforge.net/DTD/sodipodi-0.dtd"
   xmlns="http://www.w3.org/2000/svg"
   xmlns:svg="http://www.w3.org/2000/svg"><defs
     id="defs5"><filter
       inkscape:collect="always"
       style="color-interpolation-filters:sRGB"
       id="filter7"
       x="-0.047589301"
       y="-0.048417844"
       width="1.0951786"
       height="1.0968357"><feGaussianBlur
         inkscape:collect="always"
         stdDeviation="1.2690683"
         id="feGaussianBlur7" /></filter></defs><sodipodi:namedview
     id="namedview5"
     pagecolor="#ffffff"
     bordercolor="#666666"
     borderopacity="1.0"
     inkscape:showpageshadow="2"
     inkscape:pageopacity="0.0"
     inkscape:pagecheckerboard="0"
     inkscape:deskcolor="#d1d1d1"
     inkscape:zoom="9.432"
     inkscape:cx="32.071671"
     inkscape:cy="43.946141"
     inkscape:window-width="2560"
     inkscape:window-height="1403"
     inkscape:window-x="0"
     inkscape:window-y="0"
     inkscape:window-maximized="1"
     inkscape:current-layer="svg5" /><g
     id="g7"
     transform="translate(5.9999996,8.0000002)"
     style="fill:#000000"><path
       d="m 62.125553,22.418746 c -1.60449,-4.09766 -3.62207,-8.0498 -9.04883,-7.49951 -1.4873,0.15137 -2.87598,0.78857 -3.93848,1.77246 -1.55176,-2.07178 -4.15039,-3.09033 -6.89355,-2.54443 -1.58984,0.31641 -2.99121,1.10889 -4.00586,2.2373 -1.65234,-1.8457 -4.21045,-2.68311 -6.80908,-2.05762 -1.38184,0.3335 -2.57422,1.05811 -3.48145,2.03516 l -4.57764,-10.61914 c -0.729,-1.96436 -2.32764,-3.65723 -4.28906,-4.53809 -1.84375,-0.82861 -3.88232,-0.87549 -5.73926,-0.13428 -4.2846698,1.71191 -5.3012698,6.22656 -4.0488298,9.69238 l 10.3998998,25.09131 c -1.24512,-0.73145 -4.02881,-2.37305 -5.58691,-3.2915 -0.71631,-0.42236 -1.19336,-0.70068 -1.21533,-0.71191 -3.6035198,-1.84912 -7.4101598,-0.37354 -9.3081098,2.03857 -1.33789,1.7002 -1.85303,3.80176 -1.44971,5.91797 0.42041,2.20898 1.78711,4.17773 3.65576,5.26562 5.6708998,3.30566 8.4150398,4.85449 10.2304698,5.87988 2.07129,1.16895 2.69629,1.52148 4.96924,2.97656 0.91162,0.58301 1.99414,1.43945 3.14014,2.3457 3.88281,3.07129 9.07471,7.17773 15.52295,7.17773 0.61816,0 1.24707,-0.03809 1.88867,-0.11816 5.72949,-0.71582 14.81055,-2.83008 17.49316,-4.38281 5.0459,-2.9209 5.2168,-6.50293 5.35352,-9.38086 0.05176,-1.07324 0.09961,-2.08691 0.39648,-3.00391 3.07423,-9.51366 -0.37597,-18.3203 -2.65819,-24.14842 z"
       id="path7"
       style="fill:#000000;fill-opacity:1;filter:url(#filter7)"
       inkscape:label="shadow" /><path
       d="m 62.125553,22.418746 c -1.60449,-4.09766 -3.62207,-8.0498 -9.04883,-7.49951 -1.4873,0.15137 -2.87598,0.78857 -3.93848,1.77246 -1.55176,-2.07178 -4.15039,-3.09033 -6.89355,-2.54443 -1.58984,0.31641 -2.99121,1.10889 -4.00586,2.2373 -1.65234,-1.8457 -4.21045,-2.68311 -6.80908,-2.05762 -1.38184,0.3335 -2.57422,1.05811 -3.48145,2.03516 l -4.57764,-10.61914 c -0.729,-1.96436 -2.32764,-3.65723 -4.28906,-4.53809 -1.84375,-0.82861 -3.88232,-0.87549 -5.73926,-0.13428 -4.2846698,1.71191 -5.3012698,6.22656 -4.0488298,9.69238 l 10.3998998,25.09131 c -1.24512,-0.73145 -4.02881,-2.37305 -5.58691,-3.2915 -0.71631,-0.42236 -1.19336,-0.70068 -1.21533,-0.71191 -3.6035198,-1.84912 -7.4101598,-0.37354 -9.3081098,2.03857 -1.33789,1.7002 -1.85303,3.80176 -1.44971,5.91797 0.42041,2.20898 1.78711,4.17773 3.65576,5.26562 5.6708998,3.30566 8.4150398,4.85449 10.2304698,5.87988 2.07129,1.16895 2.69629,1.52148 4.96924,2.97656 0.91162,0.58301 1.99414,1.43945 3.14014,2.3457 3.88281,3.07129 9.07471,7.17773 15.52295,7.17773 0.61816,0 1.24707,-0.03809 1.88867,-0.11816 5.72949,-0.71582 14.81055,-2.83008 17.49316,-4.38281 5.0459,-2.9209 5.2168,-6.50293 5.35352,-9.38086 0.05176,-1.07324 0.09961,-2.08691 0.39648,-3.00391 3.07423,-9.51366 -0.37597,-18.3203 -2.65819,-24.14842 z"
       id="path6"
       style="fill:#000000"
       inkscape:label="bg" /><path
       d="m 62.125553,22.418746 c -1.60449,-4.09766 -3.62207,-8.0498 -9.04883,-7.49951 -1.4873,0.15137 -2.87598,0.78857 -3.93848,1.77246 -1.55176,-2.07178 -4.15039,-3.09033 -6.89355,-2.54443 -1.58984,0.31641 -2.99121,1.10889 -4.00586,2.2373 -1.65234,-1.8457 -4.21045,-2.68311 -6.80908,-2.05762 -1.38184,0.3335 -2.57422,1.05811 -3.48145,2.03516 l -4.57764,-10.61914 c -0.729,-1.96436 -2.32764,-3.65723 -4.28906,-4.53809 -1.84375,-0.82861 -3.88232,-0.87549 -5.73926,-0.13428 -4.28467,1.71191 -5.30127,6.22656 -4.04883,9.69238 l 10.3999,25.09131 c -1.24512,-0.73145 -4.02881,-2.37305 -5.58691,-3.2915 -0.71631,-0.42236 -1.19336,-0.70068 -1.21533,-0.71191 -3.60352,-1.84912 -7.41016,-0.37354 -9.30811,2.03857 -1.33789,1.7002 -1.85303,3.80176 -1.44971,5.91797 0.42041,2.20898 1.78711,4.17773 3.65576,5.26562 5.6709,3.30566 8.41504,4.85449 10.23047,5.87988 2.07129,1.16895 2.69629,1.52148 4.96924,2.97656 0.91162,0.58301 1.99414,1.43945 3.14014,2.3457 3.88281,3.07129 9.07471,7.17773 15.52295,7.17773 0.61816,0 1.24707,-0.03809 1.88867,-0.11816 5.72949,-0.71582 14.81055,-2.83008 17.49316,-4.38281 5.0459,-2.9209 5.2168,-6.50293 5.35352,-9.38086 0.05176,-1.07324 0.09961,-2.08691 0.39648,-3.00391 3.07423,-9.51366 -0.37597,-18.3203 -2.65819,-24.14842 z m -1.14844,22.91797 c -0.45996,1.4248 -0.52637,2.81641 -0.58496,4.04395 -0.12305,2.57812 -0.2041,4.28125 -3.3623,6.10938 -1.97363,1.1416 -10.33984,3.1709 -15.98535,3.87598 -5.66504,0.70801 -10.52734,-3.13867 -14.43457,-6.22852 -1.22656,-0.96973 -2.38525,-1.88672 -3.46533,-2.57715 -2.36621,-1.51465 -3.06982,-1.91113 -5.1582,-3.09082 -1.80664,-1.01953 -4.53613,-2.56055 -10.18359,-5.85156 -0.85596,-0.49902 -1.53906,-1.50391 -1.74023,-2.55957 -0.12988,-0.67969 -0.11963,-1.7002 0.66406,-2.69531 0.50977,-0.64844 1.54199,-1.34375 2.77148,-1.34375 0.4834,0 0.99707,0.10742 1.52148,0.36719 l 1.05566,0.62207 c 1.80566,1.06445 5.25391,3.09766 6.05615,3.56738 1.39258,0.81738 3.09473,0.67773 4.33643,-0.35449 1.26953,-1.05371 1.72607,-2.74316 1.12988,-4.38867 l -10.5752,-25.51418 c -0.5791,-1.60498 -0.26123,-3.70801 1.8042,-4.5332 0.86426,-0.34521 1.74463,-0.32422 2.61621,0.06836 0.99707,0.44775 1.83594,1.33252 2.18799,2.30908 0.01367,0.0376 0.02881,0.0752 0.04492,0.1123 l 6.46777,15.00586 c 0.03516,0.17188 0.09277,0.33887 0.17139,0.49609 l 0.33301,0.66553 c 0.48389,0.9668 1.6499,1.37695 2.63232,0.91846 0.98145,-0.45654 1.42139,-1.61133 0.99268,-2.60498 l -0.21387,-0.49707 c -0.02734,-1.43408 0.91553,-2.70752 2.30859,-3.04346 1.52393,-0.3667 2.95996,0.3916 3.48633,1.84766 l 1.11523,3.09082 c 0,0 0,0 0,4.9e-4 0.375,1.03857 1.52441,1.57373 2.55957,1.20215 1.03906,-0.375 1.57715,-1.521 1.20215,-2.56006 l -0.0029,-0.0083 c -0.28223,-0.78955 -0.22949,-1.59375 0.14941,-2.26465 0.4209,-0.74512 1.18359,-1.26123 2.14844,-1.45361 1.49707,-0.29541 2.83984,0.43701 3.3418,1.82861 l 1.13281,3.13818 c 0.375,1.03857 1.52441,1.57471 2.55957,1.20215 1.03906,-0.375 1.57715,-1.521 1.20215,-2.56006 v -4.9e-4 l -9.8e-4,-0.0024 c -0.19141,-0.53418 -0.12891,-1.05908 0.18652,-1.56006 0.41895,-0.66602 1.19824,-1.13232 2.03418,-1.21729 1.7666,-0.18066 2.9541,-0.0376 4.91895,4.979 2.19923,5.61525 5.21094,13.3047 2.57618,21.459 z"
       id="path1"
       inkscape:label="path"
       style="fill:#ffffff" /><g
       id="g6"
       style="fill:#ffffff"><path
         d="m 53.716373,30.418746 c -0.34082,-1.05029 -1.4668,-1.62402 -2.51953,-1.28516 -1.05078,0.34082 -1.62598,1.46875 -1.28516,2.51953 l 3.57422,11.01562 c 0.27441,0.8457 1.05859,1.38379 1.90234,1.38379 0.2041,0 0.41211,-0.03223 0.61719,-0.09863 1.05078,-0.34082 1.62598,-1.46875 1.28516,-2.51953 z"
         id="path2"
         style="fill:#ffffff" /><path
         d="m 44.589413,32.986126 c -0.34082,-1.05029 -1.4668,-1.62451 -2.51953,-1.28516 -1.05078,0.34082 -1.62598,1.46875 -1.28516,2.51953 l 3.57422,11.01465 c 0.27441,0.8457 1.05859,1.38379 1.90234,1.38379 0.2041,0 0.41211,-0.03223 0.61719,-0.09863 1.05078,-0.34082 1.62598,-1.46875 1.28516,-2.51953 z"
         id="path3"
         style="fill:#ffffff" /><path
         d="m 35.227113,35.295696 c -0.34082,-1.05078 -1.4668,-1.62402 -2.51953,-1.28516 -1.05078,0.34082 -1.62598,1.46875 -1.28516,2.51953 l 3.57422,11.01465 c 0.27441,0.8457 1.05859,1.38379 1.90234,1.38379 0.2041,0 0.41211,-0.03223 0.61719,-0.09863 1.05078,-0.34082 1.62598,-1.46875 1.28516,-2.51953 z"
         id="path4"
         style="fill:#ffffff" /></g></g></svg>
