<?xml version="1.0" encoding="UTF-8" standalone="no"?>
<!-- Created with Inkscape (http://www.inkscape.org/) -->

<svg
   version="1.1"
   id="svg1"
   width="888"
   height="888"
   viewBox="0 0 888 888"
   sodipodi:docname="qrcode.svg"
   inkscape:version="1.3 (0e150ed6c4, 2023-07-21)"
   xmlns:inkscape="http://www.inkscape.org/namespaces/inkscape"
   xmlns:sodipodi="http://sodipodi.sourceforge.net/DTD/sodipodi-0.dtd"
   xmlns="http://www.w3.org/2000/svg"
   xmlns:svg="http://www.w3.org/2000/svg">
  <defs
     id="defs1" />
  <sodipodi:namedview
     id="namedview1"
     pagecolor="#ffffff"
     bordercolor="#666666"
     borderopacity="1.0"
     inkscape:showpageshadow="2"
     inkscape:pageopacity="0.0"
     inkscape:pagecheckerboard="0"
     inkscape:deskcolor="#d1d1d1"
     inkscape:zoom="0.79360465"
     inkscape:cx="444.17582"
     inkscape:cy="444.17582"
     inkscape:window-width="1920"
     inkscape:window-height="1043"
     inkscape:window-x="0"
     inkscape:window-y="0"
     inkscape:window-maximized="1"
     inkscape:current-layer="g1" />
  <g
     inkscape:groupmode="layer"
     inkscape:label="Image"
     id="g1"
     transform="translate(-72,-72)">
    <path
       style="fill:#ffffff"
       d="m 72,876 v -84 h 84 84 v 84 84 H 156 72 Z m 144,0 V 816 H 156 96 v 60 60 h 60 60 z m -96,0 v -36 h 36 36 v 36 36 h -36 -36 z m 144,24 v -60 h 12 12 v 36 36 h 12 12 v -24 -24 h 12 12 v -24 -24 h -36 -36 v -24 -24 h -36 -36 v -12 -12 h -12 -12 v 12 12 H 156 144 V 756 744 H 132 120 V 720 696 H 108 96 v 36 36 H 84 72 v -84 -84 h 12 12 v 12 12 h 24 24 V 600 576 H 132 120 V 504 432 H 108 96 v 12 12 H 84 72 v -12 -12 h 12 12 v -12 -12 h 12 12 v 12 12 h 24 24 v -12 -12 h 12 12 v 12 12 h 12 12 v -12 -12 h 12 12 v -12 -12 h -24 -24 v -12 -12 h -12 -12 v -12 -12 h 12 12 v 12 12 h 24 24 v -12 -12 h -12 -12 v -12 -12 h 12 12 v -12 -12 h -12 -12 v -12 -12 h 36 36 v -12 -12 h -12 -12 v -24 -24 h 12 12 v -12 -12 h -12 -12 v -12 -12 h 36 36 v 12 12 h -12 -12 v 24 24 h 12 12 v -12 -12 h 24 24 v 24 24 h -12 -12 v 24 24 h 24 24 v 12 12 h 12 12 v -36 -36 h -12 -12 v -24 -24 h 60 60 v -12 -12 h -24 -24 v -12 -12 h -12 -12 v -12 -12 h -12 -12 v 24 24 h -36 -36 v -24 -24 h 12 12 v 12 12 h 12 12 V 120 96 H 384 360 V 84 72 h 24 24 v 12 12 h 24 24 V 84 72 h 48 48 v 12 12 h 36 36 V 84 72 h 12 12 v 12 12 h 12 12 v 24 24 h 24 24 v 12 12 h -36 -36 v 12 12 h -12 -12 v 24 24 h 12 12 v -12 -12 h 12 12 v 12 12 h -12 -12 v 12 12 h 24 24 v -24 -24 h 12 12 v -12 -12 h 24 24 v 36 36 h 12 12 v 12 12 h -12 -12 v 12 12 h 12 12 v 24 24 h 12 12 v -24 -24 h 12 12 v 12 12 h 12 12 v -36 -36 h 12 12 v 12 12 h 12 12 v -12 -12 h 12 12 v 24 24 h 12 12 v 12 12 h -12 -12 v 12 12 h 12 12 v 12 12 h -12 -12 v 12 12 h 12 12 v 36 36 h -12 -12 v 12 12 h 12 12 v 36 36 h -12 -12 v 12 12 h 12 12 v 36 36 h -12 -12 v 12 12 h 12 12 v 24 24 h -12 -12 v -12 -12 h -12 -12 v -12 -12 h -24 -24 v 12 12 h -12 -12 v -12 -12 h 12 12 v -12 -12 h -12 -12 v -12 -12 h -12 -12 v 12 12 h -24 -24 v 12 12 h -12 -12 v 12 12 h 12 12 v 12 12 h 48 48 v 24 24 h 12 12 v 12 12 h -12 -12 v 12 12 h 24 24 v 12 12 h 24 24 v 48 48 h -36 -36 v -12 -12 h 24 24 v -12 -12 h -12 -12 v -12 -12 h -12 -12 v 12 12 h -12 -12 v -12 -12 h -12 -12 v 36 36 h -24 -24 v -12 -12 h -36 -36 v 12 12 h -24 -24 v -12 -12 h -24 -24 v 12 12 h -12 -12 v -12 -12 h -12 -12 v 12 12 h -12 -12 v -12 -12 h -12 -12 v -12 -12 h 12 12 v -12 -12 h -36 -36 v 24 24 h 12 12 v 12 12 h -12 -12 v -12 -12 h -12 -12 v 12 12 h -24 -24 v -12 -12 h -12 -12 v 12 12 h -12 -12 v -24 -24 h 12 12 v -12 -12 h -12 -12 v -12 -12 h -12 -12 v 36 36 h -24 -24 v 12 12 h -12 -12 z m 168,24 v -12 h -12 -12 v 12 12 h 12 12 z m 144,0 v -12 h -12 -12 v 12 12 h 12 12 z m 144,0 v -12 h 12 12 v -24 -24 h -12 -12 v 12 12 h -12 -12 v -12 -12 h -24 -24 v -12 -12 h 24 24 v -24 -24 h 12 12 v 24 24 h 12 12 v -24 -24 h -12 -12 v -12 -12 h 12 12 v -24 -24 h -12 -12 v 24 24 h -12 -12 v 12 12 h -12 -12 v -24 -24 h 12 12 v -12 -12 h -12 -12 v -36 -36 h 12 12 v -12 -12 h 12 12 v 24 24 h -12 -12 v 12 12 h 24 24 v -12 -12 h 12 12 v -12 -12 h -12 -12 v -12 -12 h 24 24 v -12 -12 h 12 12 v 12 12 h 12 12 v -12 -12 h 12 12 v 24 24 h 36 36 v -12 -12 h -24 -24 v -12 -12 h 12 12 v -12 -12 h -36 -36 v -12 -12 h 48 48 v -12 -12 h -24 -24 v -24 -24 h -24 -24 v -12 -12 h -12 -12 v 12 12 h -12 -12 v 12 12 h -12 -12 v 12 12 h -12 -12 v 12 12 h -12 -12 v 12 12 h -36 -36 v 12 12 h -12 -12 v -12 -12 h -12 -12 v -12 -12 h 24 24 v -12 -12 h 12 12 v 12 12 h 12 12 v -24 -24 h 24 24 v -12 -12 h 12 12 v -12 -12 h 12 12 v -12 -12 h 12 12 v -24 -24 h 12 12 v 12 12 h 12 12 v 12 12 h 12 12 v 12 12 h 12 12 v 12 12 h 12 12 v -24 -24 h -24 -24 v -24 -24 h -24 -24 v -12 -12 h -12 -12 v 12 12 h -24 -24 v 36 36 h -12 -12 v 12 12 h -12 -12 v -12 -12 h -12 -12 v -12 -12 h 12 12 v -12 -12 h 12 12 v -12 -12 h -24 -24 v 24 24 h -12 -12 v -24 -24 h -12 -12 v 12 12 h -12 -12 v -36 -36 h 12 12 v 12 12 h 60 60 v -24 -24 h -12 -12 v -12 -12 h 12 12 v -12 -12 h -12 -12 v 12 12 h -24 -24 v 12 12 h -12 -12 v 12 12 h -12 -12 v -12 -12 h -12 -12 v -12 -12 h -12 -12 v -12 -12 h -24 -24 v -36 -36 h -12 -12 v 48 48 h -24 -24 v -12 -12 h 12 12 v -24 -24 h -12 -12 v 24 24 h -12 -12 v 12 12 h 12 12 v 36 36 h -24 -24 v -12 -12 h -12 -12 v 12 12 h -12 -12 v 12 12 h -12 -12 v -24 -24 h 12 12 v -12 -12 h -12 -12 v -12 -12 h -12 -12 v -12 -12 h -12 -12 v 12 12 h 12 12 v 12 12 h -24 -24 v -12 -12 h -12 -12 v 12 12 h -12 -12 v 12 12 h 12 12 v -12 -12 h 12 12 v 12 12 h 12 12 v 12 12 h -12 -12 v 12 12 h 24 24 v 12 12 h 24 24 v 12 12 h -12 -12 v 24 24 h -12 -12 v -12 -12 h -24 -24 v 12 12 h -12 -12 v -12 -12 h -12 -12 v -12 -12 h 12 12 v -12 -12 h -12 -12 v 12 12 h -12 -12 v 12 12 h 12 12 v 12 12 h -24 -24 v -12 -12 h -24 -24 v 12 12 h 12 12 v 12 12 h -12 -12 v 36 36 h 12 12 v 24 24 h 12 12 v 12 12 h -36 -36 v 24 24 h 12 12 v 24 24 h 12 12 v -12 -12 h 12 12 v -36 -36 h 24 24 v 12 12 h -12 -12 v 12 12 h 12 12 v 12 12 h -12 -12 v 12 12 h 12 12 v -12 -12 h 12 12 v 12 12 h 12 12 v 24 24 h 12 12 v -12 -12 h 12 12 v 12 12 h 24 24 v 12 12 h -12 -12 v 24 24 h 36 36 v 12 12 h 24 24 v -24 -24 h 12 12 v 12 12 h 24 24 v -24 -24 h 24 24 v 12 12 h -12 -12 v 12 12 h 12 12 v 12 12 h 12 12 v 12 12 h 12 12 v -12 -12 h 12 12 v 24 24 h 24 24 z m -96,-48 v -12 h -12 -12 v -12 -12 h 12 12 v 12 12 h 12 12 v 12 12 H 636 624 Z M 408,828 v -12 h 12 12 v -24 -24 h -12 -12 v -12 -12 h -12 -12 v 12 12 h -12 -12 v -24 -24 h 12 12 v -12 -12 h -12 -12 v -12 -12 h -12 -12 v 12 12 h -12 -12 v -12 -12 h -12 -12 v 12 12 h -24 -24 v -12 -12 h 24 24 v -12 -12 h -24 -24 v -12 -12 h -24 -24 v -24 -24 h -12 -12 v -12 -12 h 48 48 v -24 -24 h 12 12 v -12 -12 h 24 24 v 12 12 h -12 -12 v 12 12 h 12 12 v 12 12 h -12 -12 v -12 -12 h -12 -12 v 36 36 h -12 -12 v -12 -12 h -24 -24 v 12 12 h 12 12 v 12 12 h 24 24 v 12 12 h 12 12 v 12 12 h 12 12 v -36 -36 h 24 24 v 12 12 h -12 -12 v 24 24 h 36 36 v -12 -12 h -12 -12 v -12 -12 h 12 12 v -24 -24 h -12 -12 v -12 -12 h -12 -12 v 12 12 h -12 -12 v -24 -24 h 12 12 v -12 -12 h -12 -12 v -12 -12 h 36 36 v -12 -12 h -12 -12 v -12 -12 h 12 12 v -24 -24 h -12 -12 v -12 -12 h 12 12 v 12 12 h 24 24 v -12 -12 h 12 12 v -24 -24 h 12 12 v -12 -12 h 36 36 v 12 12 h -36 -36 v 36 36 h 12 12 v -24 -24 h 24 24 v 12 12 h -12 -12 v 24 24 h -24 -24 v 12 12 h 36 36 v -12 -12 h 12 12 v 12 12 h 12 12 v 12 12 h 24 24 v 24 24 h -12 -12 v -12 -12 h -12 -12 v 12 12 h -12 -12 v 12 12 h -12 -12 v 12 12 h -12 -12 v -12 -12 h -12 -12 v -12 -12 h -12 -12 v 12 12 h -36 -36 v 24 24 h 12 12 v -12 -12 h 24 24 v 12 12 h 36 36 v 12 12 h 12 12 v 12 12 h 24 24 v -12 -12 h 12 12 v 12 12 h -12 -12 v 12 12 h -24 -24 v 12 12 h 12 12 v 12 12 h -12 -12 v 12 12 h 24 24 v 12 12 h -24 -24 v 12 12 h 12 12 v 12 12 h -12 -12 v 12 12 h -12 -12 v -12 -12 h -12 -12 v -12 -12 h 12 12 v -12 -12 h -24 -24 v 24 24 h -12 -12 v 12 12 h -12 -12 v -24 -24 h -12 -12 v 36 36 h -12 -12 v -12 -12 h -12 -12 v 12 12 h -12 -12 z m 216,-48 v -12 h -12 -12 v 12 12 h 12 12 z m -96,-24 v -12 h 12 12 v -24 -24 h -24 -24 v -12 -12 h 12 12 v -24 -24 h 24 24 v -12 -12 h -36 -36 v 12 12 h -12 -12 v 12 12 h -12 -12 v 12 12 h 12 12 v 12 12 h -12 -12 v 12 12 h -24 -24 v 12 12 h 48 48 v 12 12 h 12 12 z m -48,-48 v -12 h 12 12 v 12 12 h -12 -12 z m 0,-48 v -12 h 12 12 v 12 12 h -12 -12 z m 144,72 v -12 h -12 -12 v -12 -12 h -12 -12 v 12 12 h 12 12 v 12 12 h 12 12 z m -24,-72 v -12 h -24 -24 v 12 12 h 24 24 z M 432,540 v -12 h -12 -12 v 12 12 h 12 12 z m 96,-48 v -12 h -24 -24 v -12 -12 h 12 12 v -12 -12 h -12 -12 v -12 -12 h 24 24 v -12 -12 h -24 -24 v 12 12 h -12 -12 v 12 12 h 12 12 v 12 12 h -12 -12 v 12 12 h 12 12 v 12 12 h 24 24 z m 96,0 v -12 h -12 -12 v -12 -12 h -24 -24 v 12 12 h 24 24 v 12 12 h 12 12 z M 312,732 v -12 h 12 12 v 12 12 H 324 312 Z M 720,612 v -12 h 12 12 v -12 -12 h 12 12 v -24 -24 h 12 12 v -12 -12 h 12 12 v -12 -12 h 12 12 v 12 12 h 12 12 v 12 12 h -36 -36 v 12 12 h 12 12 v 12 12 h 12 12 v 12 12 h -12 -12 v -12 -12 h -24 -24 v 12 12 h -12 -12 v 12 12 H 732 720 Z M 168,516 v -12 h 12 12 v 12 12 h -12 -12 z m 48,0 v -12 h 12 12 v 12 12 H 228 216 Z M 696,324 v -12 h 24 24 v 12 12 h -24 -24 z m 120,588 v -24 h 12 12 v -12 -12 h -12 -12 v 12 12 h -24 -24 v 12 12 h 12 12 v 12 12 h 12 12 z m 24,-108 v -36 h -36 -36 v 36 36 h 36 36 z m -48,0 v -12 h 12 12 v 12 12 H 804 792 Z M 312,420 v -12 h -12 -12 v 12 12 h 12 12 z m -48,-48 v -12 h -12 -12 v 12 12 h 12 12 z m 672,0 v -12 h -12 -12 v -12 -12 h 12 12 v -12 -12 h -12 -12 v 12 12 h -12 -12 v 12 12 h 12 12 v 12 12 h 12 12 z M 312,228 v -12 h -12 -12 v 12 12 h 12 12 z m 48,0 v -12 h -12 -12 v 12 12 h 12 12 z m 96,0 v -12 h -12 -12 v 12 12 h 12 12 z m 144,-12 v -24 h 12 12 v -12 -12 h 12 12 v -12 -12 h -12 -12 v -12 -12 h 12 12 V 108 96 h -12 -12 v 12 12 h -12 -12 v 12 12 H 588 576 V 132 120 H 564 552 V 108 96 h -48 -48 v 12 12 h 12 12 v 12 12 h 24 24 v 12 12 h 12 12 v -12 -12 h 12 12 v 48 48 h 12 12 z m 0,-60 v -12 h 12 12 v 12 12 h -12 -12 z m -72,-24 v -12 h 12 12 v 12 12 h -12 -12 z m 216,96 v -12 h -12 -12 v 12 12 h 12 12 z m 192,600 v -12 h -12 -12 v -12 -12 h 24 24 v 24 24 h -12 -12 z m -48,-72 v -12 h 12 12 v 12 12 h -12 -12 z m -96,-48 v -12 h 12 12 v 12 12 H 804 792 Z M 72,564 v -12 h 12 12 v 12 12 H 84 72 Z m 0,-60 v -24 h 12 12 v 24 24 H 84 72 Z M 96,372 V 360 H 84 72 v -24 -24 h 24 24 V 300 288 H 96 72 v -12 -12 h 60 60 v 12 12 h -12 -12 v 12 12 h -24 -24 v 12 12 h 12 12 v 12 12 h -12 -12 v 12 12 H 108 96 Z m 24,-24 V 336 H 108 96 v 12 12 h 12 12 z m 696,-72 v -12 h 12 12 v 12 12 H 828 816 Z M 72,156 V 72 h 84 84 v 84 84 H 156 72 Z m 144,0 V 96 H 156 96 v 60 60 h 60 60 z m -96,0 v -36 h 36 36 v 36 36 h -36 -36 z m 672,0 V 72 h 84 84 v 84 84 h -84 -84 z m 144,0 V 96 h -60 -60 v 60 60 h 60 60 z m -96,0 v -36 h 36 36 v 36 36 H 876 840 Z M 744,132 V 120 H 720 696 V 96 72 h 12 12 v 12 12 h 12 12 V 84 72 h 12 12 v 36 36 H 756 744 Z M 264,108 V 96 h 12 12 v 12 12 H 276 264 Z M 312,96 V 72 h 12 12 v 24 24 h -12 -12 z"
       id="path1" />
  </g>
</svg>
