<?xml version="1.0" encoding="UTF-8" standalone="no"?>
<!-- Created with Inkscape (http://www.inkscape.org/) -->

<svg
   version="1.1"
   id="svg1"
   width="145.52507"
   height="144.88307"
   viewBox="0 0 145.52507 144.88307"
   sodipodi:docname="tile.svg"
   xml:space="preserve"
   inkscape:version="1.3 (0e150ed6c4, 2023-07-21)"
   xmlns:inkscape="http://www.inkscape.org/namespaces/inkscape"
   xmlns:sodipodi="http://sodipodi.sourceforge.net/DTD/sodipodi-0.dtd"
   xmlns="http://www.w3.org/2000/svg"
   xmlns:svg="http://www.w3.org/2000/svg"><defs
     id="defs1" /><sodipodi:namedview
     id="namedview1"
     pagecolor="#ffffff"
     bordercolor="#666666"
     borderopacity="1.0"
     inkscape:showpageshadow="2"
     inkscape:pageopacity="0.0"
     inkscape:pagecheckerboard="0"
     inkscape:deskcolor="#d1d1d1"
     inkscape:zoom="4.6591938"
     inkscape:cx="84.242042"
     inkscape:cy="82.095748"
     inkscape:window-width="1920"
     inkscape:window-height="1011"
     inkscape:window-x="0"
     inkscape:window-y="1472"
     inkscape:window-maximized="1"
     inkscape:current-layer="g1" /><g
     inkscape:groupmode="layer"
     inkscape:label="Image"
     id="g1"
     transform="translate(-473.92895,-84.030684)"><path
       id="rect1"
       style="fill:#ffffa1;fill-opacity:1;stroke:#000000;stroke-width:6;stroke-linecap:round;stroke-linejoin:round;stroke-dasharray:none"
       d="m 495.03472,89.33671 c 0,0 16.2244,-0.747258 25.4555,-0.767979 9.23111,-0.02072 20.65439,0.73244 29.90981,0.767979 9.2554,0.03554 17.45526,-0.468036 25.60907,-0.460788 8.15383,0.0073 23.30515,0.460788 23.30515,0.460788 8.37905,0.165671 15.12761,6.746876 15.12761,15.12753 0,0 0.50343,21.32732 0.46079,30.68798 -0.0426,9.36067 -0.583,22.69373 -0.61439,31.46572 -0.0315,8.77199 0.45137,13.12646 0.46079,21.15527 0.01,8.02881 -0.30719,21.01144 -0.30719,21.01144 -0.12251,8.37975 -6.74691,15.12752 -15.12761,15.12752 0,0 -17.07137,0.35658 -25.7627,0.30719 -8.69131,-0.0494 -17.55609,-0.63931 -26.37706,-0.61438 -8.82097,0.0249 -17.83831,0.72039 -26.53068,0.76798 -8.69238,0.0476 -25.60909,-0.46079 -25.60909,-0.46079 -8.37934,-0.15078 -15.12761,-6.74688 -15.12761,-15.12752 0,0 -1.14645,-17.81612 -1.22878,-25.92652 -0.0824,-8.1104 -0.29418,-12.75292 -0.15359,-21.47221 0.14058,-8.71929 0.50831,-21.55928 0.61438,-30.84158 0.10607,-9.28229 0.76799,-26.0801 0.76799,-26.0801 0.14804,-8.379345 6.74691,-15.12753 15.12761,-15.12753 z"
       sodipodi:nodetypes="szzzsszzzsszzzsszzzss" /></g></svg>
