<?xml version="1.0" encoding="UTF-8" standalone="no"?>
<!-- Created with Inkscape (http://www.inkscape.org/) -->

<svg
   version="1.1"
   id="svg1"
   width="1920"
   height="1080"
   viewBox="0 0 1920 1080"
   sodipodi:docname="tile-lettre-compte-moins.svg"
   xml:space="preserve"
   inkscape:version="1.3 (0e150ed6c4, 2023-07-21)"
   xmlns:inkscape="http://www.inkscape.org/namespaces/inkscape"
   xmlns:sodipodi="http://sodipodi.sourceforge.net/DTD/sodipodi-0.dtd"
   xmlns="http://www.w3.org/2000/svg"
   xmlns:svg="http://www.w3.org/2000/svg"><defs
     id="defs1" /><sodipodi:namedview
     id="namedview1"
     pagecolor="#ffffff"
     bordercolor="#666666"
     borderopacity="1.0"
     inkscape:showpageshadow="2"
     inkscape:pageopacity="0.0"
     inkscape:pagecheckerboard="0"
     inkscape:deskcolor="#d1d1d1"
     inkscape:zoom="0.43409898"
     inkscape:cx="646.16599"
     inkscape:cy="593.18269"
     inkscape:window-width="1920"
     inkscape:window-height="1043"
     inkscape:window-x="0"
     inkscape:window-y="0"
     inkscape:window-maximized="1"
     inkscape:current-layer="g1" /><g
     inkscape:groupmode="layer"
     inkscape:label="Image"
     id="g1"
     transform="translate(-461.01815,-70.798893)"
     style="display:inline"><path
       id="path3"
       style="fill:#0a8fdf;fill-opacity:1;stroke:#000000;stroke-width:18;stroke-linecap:butt;stroke-linejoin:miter;stroke-dasharray:none;stroke-opacity:1"
       d="m 1360.4576,337.72663 c -10.2333,0 -23.2314,44.59501 -26.5723,56.69726 -29.8188,0.21878 -77.5156,2.38867 -77.5156,2.38867 -26.7124,-1e-5 -47.7468,21.50878 -48.2187,48.2168 0,0 -1.8744,48.13659 -2.3477,78.31641 -9.3605,2.53711 -57.8574,16.19046 -57.8574,26.89258 0,10.26493 44.9048,23.32221 56.8418,26.61328 -0.059,2.63862 -0.093,4.75609 -0.1524,7.37695 -12.111,3.34352 -56.6894,16.33861 -56.6894,26.57031 0,10.01896 42.5606,22.62948 55.7148,26.29297 -0.017,2.61636 -0.064,5.56395 -0.062,7.99219 -13.217,3.68306 -55.6523,16.27005 -55.6523,26.27539 0,10.16383 43.9219,23.0319 56.3789,26.48047 0.4507,26.82233 3.8262,79.69726 3.8262,79.69726 0,26.71217 21.5106,47.73621 48.2187,48.2168 0,0 49.0057,1.44997 77.5215,1.44141 3.3482,12.1265 16.3377,56.67578 26.5664,56.67578 10.8843,-1e-5 24.7915,-50.05007 26.9785,-58.17383 2.1795,-0.0868 4.3577,-0.16787 6.5371,-0.24805 1.8977,7.08563 16.018,58.42188 27.0449,58.42188 11.1924,-2e-5 25.5776,-52.90451 27.1231,-58.70899 2.1239,0.0581 4.2444,0.12719 6.3672,0.19336 1.7847,6.67674 15.9894,58.51563 27.0703,58.51563 10.3323,-2e-5 23.5185,-45.57535 26.7012,-57.15039 28.0802,0.11471 80.4668,-0.9668 80.4668,-0.9668 26.7123,0 47.8263,-21.50747 48.2168,-48.2168 0,0 1.0105,-41.37994 0.9785,-66.9707 -0.01,-4.68355 -0.1002,-8.68118 -0.1875,-12.73828 12.5037,-3.46282 56.3359,-16.31427 56.3359,-26.46875 0,-10.55601 -47.3215,-24.02177 -57.6035,-26.82422 8e-4,-0.51218 -0.016,-0.87662 -0.014,-1.39844 0.01,-1.66152 0.061,-3.77276 0.078,-5.53125 10.5063,-2.86771 57.539,-16.28776 57.539,-26.80664 0,-10.17369 -44.0162,-23.06066 -56.4238,-26.49414 0.064,-2.56222 0.1249,-5.08804 0.1855,-7.625 12.6092,-3.49508 56.2383,-16.30821 56.2383,-26.4414 0,-10.03221 -42.6825,-22.66618 -55.7754,-26.31055 -0.2976,-32.98394 -1.3515,-78.89844 -1.3515,-78.89844 0,-26.71219 -21.5098,-47.68875 -48.2168,-48.2168 0,0 -48.294,-1.44545 -74.2832,-1.46875 -2.0045,-0.002 -4.0294,0.0562 -6.0371,0.0723 -2.7141,-9.97679 -16.2422,-57.68943 -26.8477,-57.68945 -11.3036,0 -25.878,54.00907 -27.1758,58.90234 -2.0144,0.0386 -4.1532,0.0245 -6.1953,0.0527 -1.229,-4.6388 -15.8555,-58.95506 -27.1895,-58.95508 -10.845,0 -24.6967,49.70713 -26.9609,58.10547 -2.2461,-0.0814 -4.45,-0.15133 -6.7031,-0.23438 -2.5224,-9.30892 -16.1864,-57.87108 -26.8965,-57.87109 z" /><text
       xml:space="preserve"
       style="font-style:normal;font-weight:normal;font-size:75.3147px;line-height:1.25;font-family:sans-serif;fill:#ffffff;fill-opacity:1;stroke:none;stroke-width:0.999999"
       x="1421.2441"
       y="541.97681"
       id="text17"><tspan
         sodipodi:role="line"
         id="tspan17"
         x="1421.2441"
         y="541.97681"
         style="font-style:normal;font-variant:normal;font-weight:bold;font-stretch:normal;font-family:Interstate;-inkscape-font-specification:'Interstate Bold';text-align:center;text-anchor:middle;fill:#ffffff;stroke-width:0.999999">LETTRE</tspan><tspan
         sodipodi:role="line"
         x="1421.2441"
         y="636.55682"
         id="tspan18"
         style="font-style:normal;font-variant:normal;font-weight:bold;font-stretch:normal;font-family:Interstate;-inkscape-font-specification:'Interstate Bold';text-align:center;text-anchor:middle;fill:#ffffff;stroke-width:0.999999">COMPTE</tspan><tspan
         sodipodi:role="line"
         x="1421.2441"
         y="731.13678"
         id="tspan19"
         style="font-style:normal;font-variant:normal;font-weight:bold;font-stretch:normal;font-family:Interstate;-inkscape-font-specification:'Interstate Bold';text-align:center;text-anchor:middle;fill:#ffffff;stroke-width:0.999999">MOINS</tspan></text></g><g
     inkscape:groupmode="layer"
     inkscape:label="Copie de Image"
     id="g27"
     transform="translate(-461.01815,-70.798893)"
     style="display:none"
     sodipodi:insensitive="true"><g
       id="g25"
       style="fill:#0a8fdf;fill-opacity:1;stroke-width:0.313738"
       transform="matrix(3.1873687,0,0,3.1873687,-343.2483,90.305106)"><g
         id="g9"
         transform="matrix(1,0,0,0.62651204,7.8266737,40.902205)"
         style="fill:#0a8fdf;fill-opacity:1;stroke-width:0.396371"><path
           style="fill:#0a8fdf;fill-opacity:1;stroke:none;stroke-width:0.396371px;stroke-linecap:butt;stroke-linejoin:miter;stroke-opacity:1"
           d="m 518.08767,88.574142 c 0,0 4.89098,-29.958577 8.60381,-29.958576 3.71283,10e-7 8.6038,29.958576 8.6038,29.958576 z"
           id="path1"
           sodipodi:nodetypes="czcc" /><path
           style="fill:#0a8fdf;fill-opacity:1;stroke:none;stroke-width:0.396371px;stroke-linecap:butt;stroke-linejoin:miter;stroke-opacity:1"
           d="m 537.08767,88.574146 c 0,0 4.89098,-29.95858 8.60381,-29.95858 3.71283,10e-6 8.6038,29.95858 8.6038,29.95858 z"
           id="path2"
           sodipodi:nodetypes="czcc" /><path
           style="fill:#0a8fdf;fill-opacity:1;stroke:none;stroke-width:0.396371px;stroke-linecap:butt;stroke-linejoin:miter;stroke-opacity:1"
           d="m 556.08767,88.574146 c 0,0 4.89098,-29.95858 8.60381,-29.95858 3.71283,10e-6 8.6038,29.95858 8.6038,29.95858 z"
           id="path9"
           sodipodi:nodetypes="czcc" /></g><g
         id="g18"
         transform="matrix(1,0,0,-0.62651204,7.8266737,285.69558)"
         style="fill:#0a8fdf;fill-opacity:1;stroke-width:0.396371"><path
           style="fill:#0a8fdf;fill-opacity:1;stroke:none;stroke-width:0.396371px;stroke-linecap:butt;stroke-linejoin:miter;stroke-opacity:1"
           d="m 518.08767,88.574142 c 0,0 4.89098,-29.958577 8.60381,-29.958576 3.71283,10e-7 8.6038,29.958576 8.6038,29.958576 z"
           id="path10"
           sodipodi:nodetypes="czcc" /><path
           style="fill:#0a8fdf;fill-opacity:1;stroke:none;stroke-width:0.396371px;stroke-linecap:butt;stroke-linejoin:miter;stroke-opacity:1"
           d="m 537.08767,88.574146 c 0,0 4.89098,-29.95858 8.60381,-29.95858 3.71283,10e-6 8.6038,29.95858 8.6038,29.95858 z"
           id="path17"
           sodipodi:nodetypes="czcc" /><path
           style="fill:#0a8fdf;fill-opacity:1;stroke:none;stroke-width:0.396371px;stroke-linecap:butt;stroke-linejoin:miter;stroke-opacity:1"
           d="m 556.08767,88.574146 c 0,0 4.89098,-29.95858 8.60381,-29.95858 3.71283,10e-6 8.6038,29.95858 8.6038,29.95858 z"
           id="path18"
           sodipodi:nodetypes="czcc" /></g><g
         id="g21"
         transform="matrix(0,-1,0.62651204,0,431.12146,708.99037)"
         style="fill:#0a8fdf;fill-opacity:1;stroke-width:0.396371"><path
           style="fill:#0a8fdf;fill-opacity:1;stroke:none;stroke-width:0.396371px;stroke-linecap:butt;stroke-linejoin:miter;stroke-opacity:1"
           d="m 518.08767,88.574142 c 0,0 4.89098,-29.958577 8.60381,-29.958576 3.71283,10e-7 8.6038,29.958576 8.6038,29.958576 z"
           id="path19"
           sodipodi:nodetypes="czcc" /><path
           style="fill:#0a8fdf;fill-opacity:1;stroke:none;stroke-width:0.396371px;stroke-linecap:butt;stroke-linejoin:miter;stroke-opacity:1"
           d="m 537.08767,88.574146 c 0,0 4.89098,-29.95858 8.60381,-29.95858 3.71283,10e-6 8.6038,29.95858 8.6038,29.95858 z"
           id="path20"
           sodipodi:nodetypes="czcc" /><path
           style="fill:#0a8fdf;fill-opacity:1;stroke:none;stroke-width:0.396371px;stroke-linecap:butt;stroke-linejoin:miter;stroke-opacity:1"
           d="m 556.08767,88.574146 c 0,0 4.89098,-29.95858 8.60381,-29.95858 3.71283,10e-6 8.6038,29.95858 8.6038,29.95858 z"
           id="path21"
           sodipodi:nodetypes="czcc" /></g><g
         id="g24"
         transform="matrix(0,-1,-0.62651204,0,675.91484,708.99037)"
         style="fill:#0a8fdf;fill-opacity:1;stroke-width:0.396371"><path
           style="fill:#0a8fdf;fill-opacity:1;stroke:none;stroke-width:0.396371px;stroke-linecap:butt;stroke-linejoin:miter;stroke-opacity:1"
           d="m 518.08767,88.574142 c 0,0 4.89098,-29.958577 8.60381,-29.958576 3.71283,10e-7 8.6038,29.958576 8.6038,29.958576 z"
           id="path22"
           sodipodi:nodetypes="czcc" /><path
           style="fill:#0a8fdf;fill-opacity:1;stroke:none;stroke-width:0.396371px;stroke-linecap:butt;stroke-linejoin:miter;stroke-opacity:1"
           d="m 537.08767,88.574146 c 0,0 4.89098,-29.95858 8.60381,-29.95858 3.71283,10e-6 8.6038,29.95858 8.6038,29.95858 z"
           id="path23"
           sodipodi:nodetypes="czcc" /><path
           style="fill:#0a8fdf;fill-opacity:1;stroke:none;stroke-width:0.396371px;stroke-linecap:butt;stroke-linejoin:miter;stroke-opacity:1"
           d="m 556.08767,88.574146 c 0,0 4.89098,-29.95858 8.60381,-29.95858 3.71283,10e-6 8.6038,29.95858 8.6038,29.95858 z"
           id="path24"
           sodipodi:nodetypes="czcc" /></g></g><path
       id="path25"
       style="fill:#0a8fdf;fill-opacity:1;stroke:#0a8fdf;stroke-width:6;stroke-linecap:round;stroke-linejoin:round;stroke-dasharray:none;stroke-opacity:1"
       d="m 1256.369,396.81326 c 0,0 51.7131,-2.38179 81.1361,-2.44784 29.4229,-0.066 65.8331,2.33456 95.3335,2.44784 29.5004,0.11328 55.6364,-1.49181 81.6256,-1.4687 25.9893,0.0233 74.2821,1.4687 74.2821,1.4687 26.7071,0.52805 48.2173,21.50479 48.2173,48.21701 0,0 1.6046,67.97803 1.4687,97.81391 -0.1358,29.8359 -1.8583,72.33328 -1.9583,100.29285 -0.1004,27.95956 1.4387,41.83886 1.4687,67.42964 0.032,25.59078 -0.9791,66.97121 -0.9791,66.97121 -0.3905,26.70935 -21.5049,48.21698 -48.2173,48.21698 0,0 -54.4128,1.13655 -82.1152,0.97913 -27.7024,-0.15746 -55.9578,-2.03772 -84.0734,-1.95826 -28.1157,0.0794 -56.8573,2.29615 -84.5631,2.44784 -27.7058,0.15172 -81.6256,-1.46871 -81.6256,-1.46871 -26.7081,-0.48059 -48.2173,-21.50479 -48.2173,-48.21698 0,0 -3.6541,-56.78654 -3.9166,-82.63738 -0.2626,-25.85083 -0.9376,-40.64826 -0.4895,-68.43985 0.4481,-27.79159 1.6202,-68.71737 1.9582,-98.30349 0.3381,-29.58608 2.4479,-83.12689 2.4479,-83.12689 0.4719,-26.70805 21.5049,-48.21702 48.2173,-48.21701 z"
       sodipodi:nodetypes="szzzsszzzsszzzsszzzss" /><text
       xml:space="preserve"
       style="font-style:normal;font-weight:normal;font-size:75.3147px;line-height:1.25;font-family:sans-serif;fill:#ffffff;fill-opacity:1;stroke:none;stroke-width:0.999999"
       x="1421.2441"
       y="541.97681"
       id="text27"><tspan
         sodipodi:role="line"
         id="tspan25"
         x="1421.2441"
         y="541.97681"
         style="font-style:normal;font-variant:normal;font-weight:bold;font-stretch:normal;font-family:Interstate;-inkscape-font-specification:'Interstate Bold';text-align:center;text-anchor:middle;fill:#ffffff;stroke-width:0.999999">LETTRE</tspan><tspan
         sodipodi:role="line"
         x="1421.2441"
         y="636.55682"
         id="tspan26"
         style="font-style:normal;font-variant:normal;font-weight:bold;font-stretch:normal;font-family:Interstate;-inkscape-font-specification:'Interstate Bold';text-align:center;text-anchor:middle;fill:#ffffff;stroke-width:0.999999">COMPTE</tspan><tspan
         sodipodi:role="line"
         x="1421.2441"
         y="731.13678"
         id="tspan27"
         style="font-style:normal;font-variant:normal;font-weight:bold;font-stretch:normal;font-family:Interstate;-inkscape-font-specification:'Interstate Bold';text-align:center;text-anchor:middle;fill:#ffffff;stroke-width:0.999999">MOINS</tspan></text></g></svg>
