<?xml version="1.0" encoding="UTF-8" standalone="no"?>
<!-- Created with Inkscape (http://www.inkscape.org/) -->

<svg
   version="1.1"
   id="svg1"
   width="570"
   height="570"
   viewBox="0 0 570 570"
   sodipodi:docname="tile-center.svg"
   xml:space="preserve"
   inkscape:version="1.3 (0e150ed6c4, 2023-07-21)"
   xmlns:inkscape="http://www.inkscape.org/namespaces/inkscape"
   xmlns:sodipodi="http://sodipodi.sourceforge.net/DTD/sodipodi-0.dtd"
   xmlns="http://www.w3.org/2000/svg"
   xmlns:svg="http://www.w3.org/2000/svg"><defs
     id="defs1" /><sodipodi:namedview
     id="namedview1"
     pagecolor="#ffffff"
     bordercolor="#666666"
     borderopacity="1.0"
     inkscape:showpageshadow="2"
     inkscape:pageopacity="0.0"
     inkscape:pagecheckerboard="0"
     inkscape:deskcolor="#d1d1d1"
     inkscape:zoom="0.55609804"
     inkscape:cx="265.241"
     inkscape:cy="594.31966"
     inkscape:window-width="1920"
     inkscape:window-height="1043"
     inkscape:window-x="0"
     inkscape:window-y="0"
     inkscape:window-maximized="1"
     inkscape:current-layer="g45"
     showguides="true" /><g
     inkscape:groupmode="layer"
     inkscape:label="Copie de Image"
     id="g45"
     transform="translate(-1138.9459,-328.72663)"
     style="display:inline"><path
       id="path31"
       style="fill:#e5b5b3;fill-opacity:1;stroke:#000000;stroke-width:18;stroke-linecap:butt;stroke-linejoin:miter;stroke-dasharray:none;stroke-opacity:1"
       d="m 1390.7389,337.72663 c -10.3191,0 -23.4794,45.44268 -26.6836,57.08984 -9.1863,-0.27124 -18.1762,-0.46996 -26.5508,-0.45117 -29.423,0.0661 -81.1348,2.44726 -81.1348,2.44726 -26.7124,-1e-5 -47.7468,21.50878 -48.2187,48.2168 0,0 -2.1092,53.5409 -2.4473,83.12695 -0.087,7.60847 -0.3117,16.93487 -0.4824,25.62696 -11.3823,3.12529 -57.2754,16.36907 -57.2754,26.73633 0,10.12682 43.5685,22.92892 56.209,26.43359 -0.054,2.56083 -0.1142,5.29449 -0.1621,7.73828 -12.8127,3.5576 -56.0469,16.29532 -56.0469,26.38672 0,10.05259 42.8717,22.72121 55.8691,26.33594 0.1406,8.5468 0.3122,16.87872 0.4199,27.48633 0.2625,25.85081 3.9161,82.63671 3.9161,82.63671 0,26.71217 21.5106,47.73621 48.2187,48.2168 0,0 53.9192,1.62047 81.625,1.46875 8.5814,-0.047 17.2771,-0.31057 26.0078,-0.62891 3.1236,11.37642 16.3681,57.27735 26.7364,57.27735 11.3655,-1e-5 26.0463,-54.639 27.2031,-59.00977 1.5352,-0.0163 3.0834,-0.0816 4.6152,-0.0859 0.5061,-10e-4 1.0134,0.0178 1.5195,0.0176 1.0659,4.03267 15.8161,59.07813 27.2207,59.07813 10.6517,-2e-5 24.2387,-48.08323 26.8692,-57.76953 9.5298,0.30756 19.0359,0.57922 28.4648,0.63281 27.7024,0.15742 82.1153,-0.98047 82.1153,-0.98047 26.7123,0 47.8263,-21.50747 48.2168,-48.2168 0,0 1.0105,-41.37994 0.9785,-66.9707 -0.02,-16.79964 -0.668,-28.75762 -1.0977,-42.75976 11.4602,-3.14847 57.2461,-16.37534 57.2461,-26.72852 0,-10.33308 -45.5836,-23.5198 -57.1543,-26.70117 0.054,-2.35812 0.1164,-4.79604 0.1758,-7.20508 11.7782,-3.24338 56.9785,-16.35756 56.9785,-26.65234 0,-10.04235 -42.7767,-22.69262 -55.8223,-26.32227 0.054,-3.7828 0.1483,-7.87226 0.1641,-11.35352 0.1359,-29.83585 -1.4687,-97.81445 -1.4687,-97.81445 0,-26.71219 -21.5098,-47.68875 -48.2168,-48.2168 0,0 -48.294,-1.44545 -74.2832,-1.46875 -11.9051,-0.0106 -23.8784,0.32865 -36.1543,0.67969 -2.0451,-7.61623 -16.0566,-58.29685 -27.0118,-58.29687 -11.3138,0 -25.9049,54.11189 -27.1796,58.91992 -2.06,-0.0336 -4.1262,-0.0684 -6.2325,-0.11719 -1.4267,-5.3687 -15.9002,-58.80272 -27.1464,-58.80273 z" /><path
       sodipodi:type="star"
       style="fill:#000000;fill-opacity:1;stroke:#000000;stroke-width:18;stroke-linecap:round;stroke-linejoin:round;stroke-dasharray:none"
       id="path2"
       inkscape:flatsided="false"
       sodipodi:sides="5"
       sodipodi:cx="891.37323"
       sodipodi:cy="403.65787"
       sodipodi:r1="241.51073"
       sodipodi:r2="128.00069"
       sodipodi:arg1="1.5707963"
       sodipodi:arg2="2.1991148"
       inkscape:rounded="0.1"
       inkscape:randomized="0"
       d="m 891.37324,645.16859 c -15.71383,10e-6 -62.52416,-128.71963 -75.23692,-137.95599 -12.71276,-9.23636 -149.5976,-13.97907 -154.45344,-28.92381 -4.85584,-14.94474 103.09862,-99.24056 107.95446,-114.1853 4.85584,-14.94475 -32.93332,-146.59554 -20.22056,-155.8319 12.71276,-9.23636 126.24261,67.38559 141.95644,67.38559 15.71383,0 129.24368,-76.62196 141.95648,-67.3856 12.7127,9.23636 -25.0764,140.88715 -20.2206,155.83189 4.8559,14.94475 112.8103,99.24057 107.9545,114.18531 -4.8559,14.94474 -141.74069,19.68746 -154.45345,28.92381 -12.71276,9.23636 -59.52308,137.956 -75.23691,137.956 z"
       transform="matrix(0.74406923,0,0,-0.74406923,757.77475,923.36609)"
       inkscape:transform-center-y="-17.159879"
       inkscape:transform-center-x="-1.3421741e-06" /></g></svg>
