<?xml version="1.0" encoding="UTF-8" standalone="no"?>
<!-- Created with Inkscape (http://www.inkscape.org/) -->

<svg
   version="1.1"
   id="svg1"
   width="300"
   height="144.883"
   viewBox="0 0 300 144.88299"
   sodipodi:docname="tile-large.svg"
   xml:space="preserve"
   inkscape:version="1.3 (0e150ed6c4, 2023-07-21)"
   xmlns:inkscape="http://www.inkscape.org/namespaces/inkscape"
   xmlns:sodipodi="http://sodipodi.sourceforge.net/DTD/sodipodi-0.dtd"
   xmlns="http://www.w3.org/2000/svg"
   xmlns:svg="http://www.w3.org/2000/svg"><defs
     id="defs1" /><sodipodi:namedview
     id="namedview1"
     pagecolor="#ffffff"
     bordercolor="#666666"
     borderopacity="1.0"
     inkscape:showpageshadow="2"
     inkscape:pageopacity="0.0"
     inkscape:pagecheckerboard="0"
     inkscape:deskcolor="#d1d1d1"
     inkscape:zoom="2.9165674"
     inkscape:cx="171.09154"
     inkscape:cy="95.488964"
     inkscape:window-width="1920"
     inkscape:window-height="1011"
     inkscape:window-x="0"
     inkscape:window-y="32"
     inkscape:window-maximized="1"
     inkscape:current-layer="g1"
     showguides="true" /><g
     inkscape:groupmode="layer"
     inkscape:label="Image"
     id="g1"
     transform="translate(-473.92895,-84.030684)"><path
       id="rect1"
       style="fill:#ffffa1;fill-opacity:1;stroke:#000000;stroke-width:6;stroke-linecap:round;stroke-linejoin:round;stroke-dasharray:none"
       d="m 569.55155,224.21936 c -4.34565,-0.0247 -15.55609,-0.63931 -24.37706,-0.61438 -8.82097,0.0249 -15.83831,0.72039 -24.53068,0.76798 -8.69238,0.0476 -23.60909,-0.46079 -23.60909,-0.46079 -8.37934,-0.15078 -15.12761,-6.74688 -15.12761,-15.12752 0,0 -1.14645,-17.81612 -1.22878,-25.92652 -0.0824,-8.1104 -0.29418,-12.75292 -0.15359,-21.47221 0.14058,-8.71929 0.50831,-21.55928 0.61438,-30.84158 0.10607,-9.28229 0.76799,-26.0801 0.76799,-26.0801 0.14804,-8.379345 6.74691,-15.12753 15.12761,-15.12753 0,0 14.2244,-0.747258 23.4555,-0.767979 9.23111,-0.02072 18.65439,0.73244 27.90981,0.767979 9.2554,0.03554 19.53216,-0.464412 23.60907,-0.460788 4.0769,0.0036 16.07433,-0.851174 26.12028,-0.762535 10.04595,0.08864 16.07433,0.863169 26.12028,0.951808 10.04595,0.08864 14.07954,-0.279786 24.12028,-0.419666 10.04074,-0.13988 23.50473,-0.06644 28.12028,-0.0768 4.61555,-0.01036 16.65439,0.73244 25.90981,0.767979 9.2554,0.03554 15.45526,-0.468036 23.60907,-0.460788 8.15383,0.0073 21.30515,0.460788 21.30515,0.460788 8.37905,0.165671 15.12761,6.746876 15.12761,15.127532 0,0 0.50343,21.32732 0.46079,30.68798 -0.0426,9.36067 -0.583,22.69373 -0.61439,31.46572 -0.0315,8.77199 0.45137,13.12646 0.46079,21.15527 0.01,8.02881 -0.30719,21.01144 -0.30719,21.01144 -0.12251,8.37975 -6.74691,15.12752 -15.12761,15.12752 0,0 -15.07137,0.35658 -23.7627,0.30719 -8.69131,-0.0494 -15.55609,-0.63931 -24.37706,-0.61438 -8.82097,0.0249 -18.18449,0.74418 -22.53068,0.76798 -4.34618,0.0238 -18.05685,0.59559 -28.77306,0.64734 -10.71622,0.0517 -17.08629,-0.1305 -27.51602,-0.38127 -10.42973,-0.25077 -15.25403,-0.99375 -25.05872,-1.06701 -9.8047,-0.0733 -21.39881,0.67204 -25.74446,0.64734 z"
       sodipodi:nodetypes="zzzsszzzsszzzzzzzzzsszzzsszzzzzzz" /></g></svg>
